<?xml version="1.0" encoding="UTF-8" standalone="no"?>
<!DOCTYPE svg PUBLIC "-//W3C//DTD SVG 1.1//EN" "http://www.w3.org/Graphics/SVG/1.1/DTD/svg11.dtd">
<svg version="1.1" xmlns="http://www.w3.org/2000/svg" xmlns:xlink="http://www.w3.org/1999/xlink" preserveAspectRatio="xMidYMid meet" viewBox="0 0 640 640" width="640" height="640"><defs><path d="M531.85 0C591.58 0 640 48.42 640 108.15C640 214.52 640 425.48 640 531.85C640 591.58 591.58 640 531.85 640C425.48 640 214.52 640 108.15 640C48.42 640 0 591.58 0 531.85C0 425.48 0 214.52 0 108.15C0 48.42 48.42 0 108.15 0C214.52 0 425.48 0 531.85 0Z" id="b7nygdXw0"></path><clipPath id="clipcIqSTtn6S"><use xlink:href="#b7nygdXw0" opacity="1"></use></clipPath><path d="M60.2 149.24L125.69 105.86L60.2 62.86" id="fylUKgJiV"></path></defs><g><g><g><g></g><use xlink:href="#b7nygdXw0" opacity="1" fill="#67de1d" fill-opacity="0"></use><g clip-path="url(#clipcIqSTtn6S)"><use xlink:href="#b7nygdXw0" opacity="1" fill-opacity="0" stroke="#0c7d0c" stroke-width="40" stroke-opacity="1"></use></g><g><filter id="shadow2487514" x="-9" y="-9" width="659" height="659" filterUnits="userSpaceOnUse" primitiveUnits="userSpaceOnUse"><feFlood></feFlood><feComposite in2="SourceAlpha" operator="out"></feComposite><feGaussianBlur stdDeviation="1"></feGaussianBlur><feOffset dx="1" dy="1" result="afterOffset"></feOffset><feFlood flood-color="#ffffff" flood-opacity="0.8"></feFlood><feComposite in2="afterOffset" operator="in"></feComposite><feMorphology operator="dilate" radius="1"></feMorphology><feComposite in2="SourceAlpha" operator="in"></feComposite></filter><path d="M531.85 0C591.58 0 640 48.42 640 108.15C640 214.52 640 425.48 640 531.85C640 591.58 591.58 640 531.85 640C425.48 640 214.52 640 108.15 640C48.42 640 0 591.58 0 531.85C0 425.48 0 214.52 0 108.15C0 48.42 48.42 0 108.15 0C214.52 0 425.48 0 531.85 0Z" id="i1Ef2IQDs6" fill="white" fill-opacity="1" filter="url(#shadow2487514)"></path></g></g><g><g><use xlink:href="#fylUKgJiV" opacity="1" fill-opacity="0" stroke="#0c7d0c" stroke-width="30" stroke-opacity="1"></use></g></g></g></g></svg>